ffmpeg version 4.4.2-0ubuntu0.22.04.1 Copyright (c) 2000-2021 the FFmpeg developers
  built with gcc 11 (Ubuntu 11.2.0-19ubuntu1)
  configuration: --prefix=/usr --extra-version=0ubuntu0.22.04.1 --toolchain=hardened --libdir=/usr/lib/x86_64-linux-gnu --incdir=/usr/include/x86_64-linux-gnu --arch=amd64 --enable-gpl --disable-stripping --enable-gnutls --enable-ladspa --enable-libaom --enable-libass --enable-libbluray --enable-libbs2b --enable-libcaca --enable-libcdio --enable-libcodec2 --enable-libdav1d --enable-libflite --enable-libfontconfig --enable-libfreetype --enable-libfribidi --enable-libgme --enable-libgsm --enable-libjack --enable-libmp3lame --enable-libmysofa --enable-libopenjpeg --enable-libopenmpt --enable-libopus --enable-libpulse --enable-librabbitmq --enable-librubberband --enable-libshine --enable-libsnappy --enable-libsoxr --enable-libspeex --enable-libsrt --enable-libssh --enable-libtheora --enable-libtwolame --enable-libvidstab --enable-libvorbis --enable-libvpx --enable-libwebp --enable-libx265 --enable-libxml2 --enable-libxvid --enable-libzimg --enable-libzmq --enable-libzvbi --enable-lv2 --enable-omx --enable-openal --enable-opencl --enable-opengl --enable-sdl2 --enable-pocketsphinx --enable-librsvg --enable-libmfx --enable-libdc1394 --enable-libdrm --enable-libiec61883 --enable-chromaprint --enable-frei0r --enable-libx264 --enable-shared
  libavutil      56. 70.100 / 56. 70.100
  libavcodec     58.134.100 / 58.134.100
  libavformat    58. 76.100 / 58. 76.100
  libavdevice    58. 13.100 / 58. 13.100
  libavfilter     7.110.100 /  7.110.100
  libswscale      5.  9.100 /  5.  9.100
  libswresample   3.  9.100 /  3.  9.100
  libpostproc    55.  9.100 / 55.  9.100
Input #0, flv, from '/storage/32426326/20250719/32426326-20250719-154301-301.flv':
  Metadata:
    audiochannels   : 2
    5.1             : false
    4.1             : false
    3.1             : false
    encoder         : obs-output module (libobs version 31.0.2)
    4.0             : false
    displayHeight   : 1440
    cdn_ip          : 192.168.252.7
    displayWidth    : 2560
    2.1             : false
    fps             : 60
    fileSize        : 0
    7.1             : false
    Title           : 技术主播没有GG
    Artist          : 蓝音BuBuLine (32426326)
    Comment         : mikufans直播间 32426326 的直播录像
                    : 主播名: 蓝音BuBuLine
                    : 直播标题: 技术主播没有GG
                    : 直播分区: 单机游戏·主机游戏
                    : 录制时间: 2025-07-19T15:43:01.3117964+00:00
                    : 直播服务器:
                    : d1--ov-gotcha07.bilivideo.com [156.59.188.247]
                    : 
                    : 使用 mikufans录播姬 录制 https://rec.danmuji.org
                    : 录播姬版本: 2.17.3
    RecordedBy      : BililiveRecorder mikufans录播姬
    RecordedFrom    : d1--ov-gotcha07.bilivideo.com
    StreamServers   : d1--ov-gotcha07.bilivideo.com [156.59.188.247]
    RecorderVersion : 2.17.3+Branch.tags-v2.17.3.Sha.96407e2eba9a597dd9997c6fb731725f4294a371
    StartTime       : Sat, 19 Jul 2025 15:43:01 +0000
    RoomId          : 32426326
    ShortId         : 0
    Name            : 蓝音BuBuLine
    StreamTitle     : 技术主播没有GG
    AreaNameParent  : 单机游戏
    AreaNameChild   : 主机游戏
  Duration: 04:12:50.19, start: 0.035000, bitrate: 7974 kb/s
  Stream #0:0: Video: h264 (High), yuv420p(tv, bt709, progressive), 2560x1440 [SAR 1:1 DAR 16:9], 10240 kb/s, 60 fps, 60 tbr, 1k tbn, 120 tbc
  Stream #0:1: Audio: aac (LC), 48000 Hz, stereo, fltp, 196 kb/s
Stream mapping:
  Stream #0:0 -> #0:0 (h264 (native) -> png (native))
Press [q] to stop, [?] for help
Output #0, image2, to '/storage/32426326/20250719/32426326-20250719-154301-301.all.thumb.png':
  Metadata:
    audiochannels   : 2
    5.1             : false
    4.1             : false
    3.1             : false
    AreaNameChild   : 主机游戏
    4.0             : false
    displayHeight   : 1440
    cdn_ip          : 192.168.252.7
    displayWidth    : 2560
    2.1             : false
    fps             : 60
    fileSize        : 0
    7.1             : false
    Title           : 技术主播没有GG
    Artist          : 蓝音BuBuLine (32426326)
    Comment         : mikufans直播间 32426326 的直播录像
                    : 主播名: 蓝音BuBuLine
                    : 直播标题: 技术主播没有GG
                    : 直播分区: 单机游戏·主机游戏
                    : 录制时间: 2025-07-19T15:43:01.3117964+00:00
                    : 直播服务器:
                    : d1--ov-gotcha07.bilivideo.com [156.59.188.247]
                    : 
                    : 使用 mikufans录播姬 录制 https://rec.danmuji.org
                    : 录播姬版本: 2.17.3
    RecordedBy      : BililiveRecorder mikufans录播姬
    RecordedFrom    : d1--ov-gotcha07.bilivideo.com
    StreamServers   : d1--ov-gotcha07.bilivideo.com [156.59.188.247]
    RecorderVersion : 2.17.3+Branch.tags-v2.17.3.Sha.96407e2eba9a597dd9997c6fb731725f4294a371
    StartTime       : Sat, 19 Jul 2025 15:43:01 +0000
    RoomId          : 32426326
    ShortId         : 0
    Name            : 蓝音BuBuLine
    StreamTitle     : 技术主播没有GG
    AreaNameParent  : 单机游戏
    encoder         : Lavf58.76.100
  Stream #0:0: Video: png, rgb24(pc, gbr/bt709/bt709, progressive), 2560x1440 [SAR 1:1 DAR 16:9], q=2-31, 200 kb/s, 60 fps, 60 tbn
    Metadata:
      encoder         : Lavc58.134.100 png
frame=    1 fps=0.0 q=0.0 size=N/A time=00:00:00.00 bitrate=N/A speed=   0x    frame=    1 fps=0.0 q=-0.0 Lsize=N/A time=00:00:00.01 bitrate=N/A speed=0.022x    
video:4985kB audio:0kB subtitle:0kB other streams:0kB global headers:0kB muxing overhead: unknown
ffmpeg version 4.4.2-0ubuntu0.22.04.1 Copyright (c) 2000-2021 the FFmpeg developers
  built with gcc 11 (Ubuntu 11.2.0-19ubuntu1)
  configuration: --prefix=/usr --extra-version=0ubuntu0.22.04.1 --toolchain=hardened --libdir=/usr/lib/x86_64-linux-gnu --incdir=/usr/include/x86_64-linux-gnu --arch=amd64 --enable-gpl --disable-stripping --enable-gnutls --enable-ladspa --enable-libaom --enable-libass --enable-libbluray --enable-libbs2b --enable-libcaca --enable-libcdio --enable-libcodec2 --enable-libdav1d --enable-libflite --enable-libfontconfig --enable-libfreetype --enable-libfribidi --enable-libgme --enable-libgsm --enable-libjack --enable-libmp3lame --enable-libmysofa --enable-libopenjpeg --enable-libopenmpt --enable-libopus --enable-libpulse --enable-librabbitmq --enable-librubberband --enable-libshine --enable-libsnappy --enable-libsoxr --enable-libspeex --enable-libsrt --enable-libssh --enable-libtheora --enable-libtwolame --enable-libvidstab --enable-libvorbis --enable-libvpx --enable-libwebp --enable-libx265 --enable-libxml2 --enable-libxvid --enable-libzimg --enable-libzmq --enable-libzvbi --enable-lv2 --enable-omx --enable-openal --enable-opencl --enable-opengl --enable-sdl2 --enable-pocketsphinx --enable-librsvg --enable-libmfx --enable-libdc1394 --enable-libdrm --enable-libiec61883 --enable-chromaprint --enable-frei0r --enable-libx264 --enable-shared
  libavutil      56. 70.100 / 56. 70.100
  libavcodec     58.134.100 / 58.134.100
  libavformat    58. 76.100 / 58. 76.100
  libavdevice    58. 13.100 / 58. 13.100
  libavfilter     7.110.100 /  7.110.100
  libswscale      5.  9.100 /  5.  9.100
  libswresample   3.  9.100 /  3.  9.100
  libpostproc    55.  9.100 / 55.  9.100
[flv @ 0x63d55002d400] Auto-inserting h264_mp4toannexb bitstream filter
Input #0, concat, from '/storage/32426326/20250719/32426326-20250719-154301-301.all.concat.txt':
  Duration: N/A, start: 0.000000, bitrate: 10436 kb/s
  Stream #0:0: Video: h264 (High), yuv420p(tv, bt709, progressive), 2560x1440 [SAR 1:1 DAR 16:9], 10240 kb/s, 60 fps, 60 tbr, 1k tbn, 120 tbc
  Stream #0:1: Audio: aac (LC), 48000 Hz, stereo, fltp, 196 kb/s
Output #0, flv, to '/storage/32426326/20250719/32426326-20250719-154301-301.all.flv':
  Metadata:
    encoder         : Lavf58.76.100
  Stream #0:0: Video: h264 (High) ([7][0][0][0] / 0x0007), yuv420p(tv, bt709, progressive), 2560x1440 [SAR 1:1 DAR 16:9], q=2-31, 10240 kb/s, 60 fps, 60 tbr, 1k tbn, 1k tbc
  Stream #0:1: Audio: aac (LC) ([10][0][0][0] / 0x000A), 48000 Hz, stereo, fltp, 196 kb/s
Stream mapping:
  Stream #0:0 -> #0:0 (copy)
  Stream #0:1 -> #0:1 (copy)
Press [q] to stop, [?] for help
frame=    1 fps=0.0 q=-1.0 size=       0kB time=00:00:00.00 bitrate=N/A speed=N/A    frame= 6857 fps=0.0 q=-1.0 size=   28160kB time=00:01:54.40 bitrate=2016.5kbits/s speed= 228x    frame= 9349 fps=9332 q=-1.0 size=   60672kB time=00:02:35.92 bitrate=3187.5kbits/s speed= 156x    frame=10930 fps=7271 q=-1.0 size=   93440kB time=00:03:02.26 bitrate=4199.6kbits/s speed= 121x    frame=12517 fps=6246 q=-1.0 size=  126464kB time=00:03:28.68 bitrate=4964.3kbits/s speed= 104x    frame=14126 fps=5641 q=-1.0 size=  160000kB time=00:03:55.49 bitrate=5565.9kbits/s speed=  94x    frame=15759 fps=5245 q=-1.0 size=  193792kB time=00:04:22.68 bitrate=6043.4kbits/s speed=87.4x    frame=17285 fps=4932 q=-1.0 size=  225536kB time=00:04:48.09 bitrate=6413.1kbits/s speed=82.2x    frame=18925 fps=4725 q=-1.0 size=  259840kB time=00:05:15.38 bitrate=6749.3kbits/s speed=78.7x    frame=20552 fps=4562 q=-1.0 size=  293376kB time=00:05:42.47 bitrate=7017.5kbits/s speed=  76x    frame=22136 fps=4423 q=-1.0 size=  326656kB time=00:06:08.90 bitrate=7253.9kbits/s speed=73.7x    frame=23716 fps=4308 q=-1.0 size=  359424kB time=00:06:35.20 bitrate=7450.3kbits/s speed=71.8x    frame=25339 fps=4217 q=-1.0 size=  393472kB time=00:07:02.24 bitrate=7633.8kbits/s speed=70.3x    frame=27017 fps=4150 q=-1.0 size=  426240kB time=00:07:30.18 bitrate=7756.3kbits/s speed=69.2x    frame=28651 fps=4087 q=-1.0 size=  460288kB time=00:07:57.44 bitrate=7897.6kbits/s speed=68.1x    frame=30264 fps=4029 q=-1.0 size=  493824kB time=00:08:24.31 bitrate=8021.6kbits/s speed=67.1x    frame=31800 fps=3969 q=-1.0 size=  525824kB time=00:08:49.89 bitrate=8129.0kbits/s speed=66.1x    frame=33421 fps=3926 q=-1.0 size=  559360kB time=00:09:16.89 bitrate=8228.3kbits/s speed=65.4x    frame=35021 fps=3886 q=-1.0 size=  592640kB time=00:09:43.53 bitrate=8319.9kbits/s speed=64.7x    frame=36630 fps=3851 q=-1.0 size=  626176kB time=00:10:10.35 bitrate=8404.3kbits/s speed=64.2x    frame=38322 fps=3827 q=-1.0 size=  661504kB time=00:10:38.52 bitrate=8486.8kbits/s speed=63.8x    frame=39915 fps=3797 q=-1.0 size=  695040kB time=00:11:05.09 bitrate=8560.9kbits/s speed=63.3x    frame=41590 fps=3775 q=-1.0 size=  729600kB time=00:11:32.96 bitrate=8625.1kbits/s speed=62.9x    frame=43232 fps=3754 q=-1.0 size=  763648kB time=00:12:00.31 bitrate=8684.8kbits/s speed=62.5x    frame=44822 fps=3730 q=-1.0 size=  796672kB time=00:12:26.79 bitrate=8739.2kbits/s speed=62.1x    frame=46460 fps=3712 q=-1.0 size=  830720kB time=00:12:54.10 bitrate=8791.1kbits/s speed=61.8x    frame=48087 fps=3694 q=-1.0 size=  864512kB time=00:13:21.18 bitrate=8839.6kbits/s speed=61.5x    frame=49632 fps=3671 q=-1.0 size=  896768kB time=00:13:46.94 bitrate=8883.7kbits/s speed=61.2x    frame=51292 fps=3659 q=-1.0 size=  931072kB time=00:14:14.60 bitrate=8925.0kbits/s speed=  61x    frame=52913 fps=3644 q=-1.0 size=  964864kB time=00:14:41.58 bitrate=8965.9kbits/s speed=60.7x    frame=54518 fps=3630 q=-1.0 size=  998144kB time=00:15:08.30 bitrate=9002.3kbits/s speed=60.5x    frame=56255 fps=3625 q=-1.0 size= 1032704kB time=00:15:37.25 bitrate=9026.2kbits/s speed=60.4x    frame=57853 fps=3611 q=-1.0 size= 1065984kB time=00:16:03.89 bitrate=9059.6kbits/s speed=60.2x    frame=59496 fps=3601 q=-1.0 size= 1100032kB time=00:16:31.25 bitrate=9091.0kbits/s speed=  60x    frame=61207 fps=3596 q=-1.0 size= 1135872kB time=00:16:59.76 bitrate=9124.8kbits/s speed=59.9x    frame=62803 fps=3584 q=-1.0 size= 1168896kB time=00:17:26.35 bitrate=9151.3kbits/s speed=59.7x    frame=64461 fps=3577 q=-1.0 size= 1203456kB time=00:17:53.96 bitrate=9179.7kbits/s speed=59.6x    frame=66099 fps=3568 q=-1.0 size= 1237760kB time=00:18:21.27 bitrate=9207.3kbits/s speed=59.5x    frame=67773 fps=3562 q=-1.0 size= 1272320kB time=00:18:49.17 bitrate=9230.5kbits/s speed=59.4x    frame=69382 fps=3554 q=-1.0 size= 1305856kB time=00:19:15.99 bitrate=9254.0kbits/s speed=59.2x    frame=71023 fps=3547 q=-1.0 size= 1339904kB time=00:19:43.34 bitrate=9275.9kbits/s speed=59.1x    frame=72692 fps=3541 q=-1.0 size= 1374464kB time=00:20:11.12 bitrate=9296.9kbits/s speed=  59x    frame=74339 fps=3535 q=-1.0 size= 1409024kB time=00:20:38.56 bitrate=9319.5kbits/s speed=58.9x    frame=75889 fps=3525 q=-1.0 size= 1441280kB time=00:21:04.35 bitrate=9338.3kbits/s speed=58.7x    frame=77544 fps=3520 q=-1.0 size= 1475328kB time=00:21:31.95 bitrate=9354.7kbits/s speed=58.6x    frame=79132 fps=3512 q=-1.0 size= 1508608kB time=00:21:58.41 bitrate=9373.8kbits/s speed=58.5x    frame=80586 fps=3499 q=-1.0 size= 1538816kB time=00:22:22.62 bitrate=9389.0kbits/s speed=58.3x    frame=82068 fps=3488 q=-1.0 size= 1569536kB time=00:22:47.31 bitrate=9403.6kbits/s speed=58.1x    frame=83571 fps=3478 q=-1.0 size= 1600768kB time=00:23:12.35 bitrate=9418.2kbits/s speed=57.9x    frame=85234 fps=3475 q=-1.0 size= 1635328kB time=00:23:40.05 bitrate=9433.9kbits/s speed=57.9x    frame=86916 fps=3472 q=-1.0 size= 1670400kB time=00:24:08.04 bitrate=9449.9kbits/s speed=57.8x    frame=88614 fps=3471 q=-1.0 size= 1705728kB time=00:24:36.34 bitrate=9464.8kbits/s speed=57.8x    frame=90516 fps=3477 q=-1.0 size= 1742336kB time=00:25:08.02 bitrate=9464.9kbits/s speed=57.9x    frame=92099 fps=3471 q=-1.0 size= 1775360kB time=00:25:34.35 bitrate=9478.8kbits/s speed=57.8x    frame=93795 fps=3470 q=-1.0 size= 1810688kB time=00:26:02.61 bitrate=9492.6kbits/s speed=57.8x    frame=95403 fps=3465 q=-1.0 size= 1844224kB time=00:26:29.44 bitrate=9505.1kbits/s speed=57.7x    frame=96984 fps=3460 q=-1.0 size= 1876992kB time=00:26:55.77 bitrate=9516.4kbits/s speed=57.6x    frame=98678 fps=3458 q=-1.0 size= 1912320kB time=00:27:23.96 bitrate=9529.3kbits/s speed=57.6x    frame=100339 fps=3456 q=-1.0 size= 1946880kB time=00:27:51.64 bitrate=9540.8kbits/s speed=57.6x    frame=102074 fps=3456 q=-1.0 size= 1982720kB time=00:28:20.52 bitrate=9551.4kbits/s speed=57.6x    frame=103758 fps=3454 q=-1.0 size= 2017792kB time=00:28:48.57 bitrate=9562.6kbits/s speed=57.5x    frame=105450 fps=3453 q=-1.0 size= 2053120kB time=00:29:16.77 bitrate=9573.9kbits/s speed=57.5x    frame=107186 fps=3453 q=-1.0 size= 2089216kB time=00:29:45.69 bitrate=9584.4kbits/s speed=57.5x    frame=108951 fps=3455 q=-1.0 size= 2124032kB time=00:30:15.09 bitrate=9586.3kbits/s speed=57.6x    frame=110545 fps=3450 q=-1.0 size= 2157056kB time=00:30:41.65 bitrate=9595.0kbits/s speed=57.5x    frame=112163 fps=3447 q=-1.0 size= 2190848kB time=00:31:08.58 bitrate=9604.8kbits/s speed=57.4x    frame=113997 fps=3450 q=-1.0 size= 2227456kB time=00:31:39.12 bitrate=9608.3kbits/s speed=57.5x    frame=115635 fps=3448 q=-1.0 size= 2261760kB time=00:32:06.43 bitrate=9617.9kbits/s speed=57.4x    frame=117240 fps=3444 q=-1.0 size= 2295040kB time=00:32:33.17 bitrate=9625.9kbits/s speed=57.4x    frame=118902 fps=3442 q=-1.0 size= 2329600kB time=00:33:00.82 bitrate=9634.4kbits/s speed=57.3x    frame=120580 fps=3441 q=-1.0 size= 2364416kB time=00:33:28.81 bitrate=9642.2kbits/s speed=57.3x    frame=122324 fps=3442 q=-1.0 size= 2400768kB time=00:33:57.86 bitrate=9650.8kbits/s speed=57.3x    frame=123949 fps=3439 q=-1.0 size= 2434560kB time=00:34:24.89 bitrate=9658.6kbits/s speed=57.3x    frame=125714 fps=3440 q=-1.0 size= 2471424kB time=00:34:54.30 bitrate=9667.1kbits/s speed=57.3x    frame=127380 fps=3439 q=-1.0 size= 2506240kB time=00:35:22.07 bitrate=9675.0kbits/s speed=57.3x    frame=128991 fps=3436 q=-1.0 size= 2539520kB time=00:35:48.87 bitrate=9681.2kbits/s speed=57.2x    frame=130690 fps=3435 q=-1.0 size= 2574848kB time=00:36:17.19 bitrate=9688.2kbits/s speed=57.2x    frame=132237 fps=3431 q=-1.0 size= 2606848kB time=00:36:42.97 bitrate=9693.8kbits/s speed=57.2x    frame=133912 fps=3430 q=-1.0 size= 2641920kB time=00:37:10.88 bitrate=9701.3kbits/s speed=57.1x    frame=135589 fps=3429 q=-1.0 size= 2676992kB time=00:37:38.82 bitrate=9708.6kbits/s speed=57.1x    frame=137213 fps=3426 q=-1.0 size= 2710528kB time=00:38:05.86 bitrate=9713.9kbits/s speed=57.1x    frame=138925 fps=3426 q=-1.0 size= 2746112kB time=00:38:34.34 bitrate=9720.3kbits/s speed=57.1x    frame=140593 fps=3425 q=-1.0 size= 2780928kB time=00:39:02.14 bitrate=9726.7kbits/s speed=57.1x    frame=142148 fps=3421 q=-1.0 size= 2813184kB time=00:39:28.02 bitrate=9732.0kbits/s speed=  57x    frame=143748 fps=3419 q=-1.0 size= 2846208kB time=00:39:54.69 bitrate=9736.6kbits/s speed=  57x    frame=145443 fps=3418 q=-1.0 size= 2881536kB time=00:40:22.88 bitrate=9742.8kbits/s speed=56.9x    frame=147063 fps=3416 q=-1.0 size= 2915072kB time=00:40:49.86 bitrate=9747.6kbits/s speed=56.9x    frame=148918 fps=3420 q=-1.0 size= 2951168kB time=00:41:20.76 bitrate=9745.4kbits/s speed=  57x    frame=152310 fps=3458 q=-1.0 size= 2982656kB time=00:42:17.23 bitrate=9630.1kbits/s speed=57.6x    frame=154705 fps=3473 q=-1.0 size= 3015424kB time=00:42:57.12 bitrate=9585.2kbits/s speed=57.8x    frame=157006 fps=3485 q=-1.0 size= 3050240kB time=00:43:35.44 bitrate=9553.9kbits/s speed=58.1x    frame=158607 fps=3482 q=-1.0 size= 3081472kB time=00:44:02.13 bitrate=9554.2kbits/s speed=  58x    frame=160316 fps=3481 q=-1.0 size= 3116544kB time=00:44:30.59 bitrate=9559.9kbits/s speed=  58x    frame=162653 fps=3494 q=-1.0 size= 3150848kB time=00:45:09.50 bitrate=9526.4kbits/s speed=58.2x    frame=165059 fps=3508 q=-1.0 size= 3185920kB time=00:45:49.56 bitrate=9492.1kbits/s speed=58.4x    frame=167238 fps=3517 q=-1.0 size= 3220992kB time=00:46:25.88 bitrate=9471.5kbits/s speed=58.6x    frame=169275 fps=3523 q=-1.0 size= 3254528kB time=00:46:59.80 bitrate=9454.9kbits/s speed=58.7x    frame=171162 fps=3525 q=-1.0 size= 3287552kB time=00:47:31.21 bitrate=9445.7kbits/s speed=58.7x    frame=173014 fps=3527 q=-1.0 size= 3322112kB time=00:48:02.09 bitrate=9442.7kbits/s speed=58.8x    frame=175384 fps=3539 q=-1.0 size= 3355648kB time=00:48:41.59 bitrate=9409.0kbits/s speed=  59x    frame=177131 fps=3539 q=-1.0 size= 3388672kB time=00:49:10.69 bitrate=9408.0kbits/s speed=  59x    frame=178740 fps=3536 q=-1.0 size= 3422208kB time=00:49:37.52 bitrate=9415.4kbits/s speed=58.9x    frame=180840 fps=3542 q=-1.0 size= 3454464kB time=00:50:12.48 bitrate=9393.9kbits/s speed=  59x    frame=183108 fps=3551 q=-1.0 size= 3487744kB time=00:50:50.28 bitrate=9366.8kbits/s speed=59.2x    frame=185133 fps=3556 q=-1.0 size= 3521536kB time=00:51:23.99 bitrate=9354.2kbits/s speed=59.2x    frame=187621 fps=3570 q=-1.0 size= 3552256kB time=00:52:05.47 bitrate=9310.6kbits/s speed=59.5x    frame=189775 fps=3577 q=-1.0 size= 3585792kB time=00:52:41.36 bitrate=9291.8kbits/s speed=59.6x    frame=191589 fps=3577 q=-1.0 size= 3619072kB time=00:53:11.59 bitrate=9289.2kbits/s speed=59.6x    frame=194132 fps=3591 q=-1.0 size= 3651584kB time=00:53:53.95 bitrate=9249.9kbits/s speed=59.8x    frame=195758 fps=3588 q=-1.0 size= 3685376kB time=00:54:21.04 bitrate=9258.0kbits/s speed=59.8x    frame=197473 fps=3586 q=-1.0 size= 3719936kB time=00:54:49.61 bitrate=9263.6kbits/s speed=59.7x    frame=199320 fps=3587 q=-1.0 size= 3754752kB time=00:55:20.36 bitrate=9263.7kbits/s speed=59.8x    frame=201044 fps=3586 q=-1.0 size= 3789568kB time=00:55:49.08 bitrate=9269.4kbits/s speed=59.7x    frame=202967 fps=3588 q=-1.0 size= 3821312kB time=00:56:21.08 bitrate=9258.6kbits/s speed=59.8x    frame=205391 fps=3599 q=-1.0 size= 3854080kB time=00:57:01.50 bitrate=9227.7kbits/s speed=  60x    frame=208339 fps=3619 q=-1.0 size= 3887360kB time=00:57:50.60 bitrate=9175.7kbits/s speed=60.3x    frame=209990 fps=3616 q=-1.0 size= 3918848kB time=00:58:18.11 bitrate=9177.3kbits/s speed=60.2x    frame=211872 fps=3617 q=-1.0 size= 3952640kB time=00:58:49.46 bitrate=9174.2kbits/s speed=60.3x    frame=213690 fps=3617 q=-1.0 size= 3985408kB time=00:59:19.72 bitrate=9171.6kbits/s speed=60.3x    frame=216562 fps=3635 q=-1.0 size= 4017920kB time=01:00:07.58 bitrate=9123.8kbits/s speed=60.6x    frame=219160 fps=3648 q=-1.0 size= 4049408kB time=01:00:50.88 bitrate=9086.2kbits/s speed=60.8x    frame=220685 fps=3643 q=-1.0 size= 4080384kB time=01:01:16.27 bitrate=9092.5kbits/s speed=60.7x    frame=222388 fps=3641 q=-1.0 size= 4115456kB time=01:01:44.66 bitrate=9100.4kbits/s speed=60.7x    frame=224276 fps=3642 q=-1.0 size= 4151296kB time=01:02:16.13 bitrate=9102.3kbits/s speed=60.7x    frame=226692 fps=3652 q=-1.0 size= 4187392kB time=01:02:56.36 bitrate=9083.6kbits/s speed=60.8x    frame=230063 fps=3677 q=-1.0 size= 4220416kB time=01:03:52.54 bitrate=9021.1kbits/s speed=61.2x    frame=232082 fps=3680 q=-1.0 size= 4253952kB time=01:04:26.15 bitrate=9013.7kbits/s speed=61.3x    frame=234427 fps=3687 q=-1.0 size= 4284928kB time=01:05:05.21 bitrate=8988.5kbits/s speed=61.4x    frame=236096 fps=3685 q=-1.0 size= 4318464kB time=01:05:33.01 bitrate=8994.9kbits/s speed=61.4x    frame=237999 fps=3686 q=-1.0 size= 4351744kB time=01:06:04.73 bitrate=8991.6kbits/s speed=61.4x    frame=239726 fps=3684 q=-1.0 size= 4383488kB time=01:06:33.50 bitrate=8992.0kbits/s speed=61.4x    frame=241426 fps=3682 q=-1.0 size= 4416512kB time=01:07:01.79 bitrate=8996.0kbits/s speed=61.3x    frame=244274 fps=3697 q=-1.0 size= 4446976kB time=01:07:49.24 bitrate=8952.4kbits/s speed=61.6x    frame=246339 fps=3700 q=-1.0 size= 4479744kB time=01:08:23.66 bitrate=8942.7kbits/s speed=61.6x    frame=248973 fps=3712 q=-1.0 size= 4514048kB time=01:09:07.55 bitrate=8915.9kbits/s speed=61.8x    frame=251453 fps=3721 q=-1.0 size= 4546048kB time=01:09:48.87 bitrate=8890.5kbits/s speed=  62x    frame=254561 fps=3739 q=-1.0 size= 4580096kB time=01:10:40.63 bitrate=8847.8kbits/s speed=62.3x    frame=257099 fps=3749 q=-1.0 size= 4610816kB time=01:11:22.93 bitrate=8819.1kbits/s speed=62.5x    frame=258715 fps=3745 q=-1.0 size= 4644352kB time=01:11:49.82 bitrate=8827.9kbits/s speed=62.4x    frame=260783 fps=3748 q=-1.0 size= 4680704kB time=01:12:24.31 bitrate=8826.3kbits/s speed=62.4x    frame=263616 fps=3762 q=-1.0 size= 4713728kB time=01:13:11.49 bitrate=8793.1kbits/s speed=62.7x    frame=265565 fps=3763 q=-1.0 size= 4749568kB time=01:13:43.97 bitrate=8794.9kbits/s speed=62.7x    frame=268287 fps=3774 q=-1.0 size= 4784128kB time=01:14:29.30 bitrate=8769.1kbits/s speed=62.9x    frame=269925 fps=3771 q=-1.0 size= 4817408kB time=01:14:56.60 bitrate=8776.5kbits/s speed=62.8x    frame=273142 fps=3789 q=-1.0 size= 4853504kB time=01:15:50.14 bitrate=8738.2kbits/s speed=63.1x    frame=274996 fps=3789 q=-1.0 size= 4888576kB time=01:16:21.07 bitrate=8741.9kbits/s speed=63.1x    frame=276790 fps=3787 q=-1.0 size= 4924928kB time=01:16:50.93 bitrate=8749.9kbits/s speed=63.1x    frame=278660 fps=3787 q=-1.0 size= 4959232kB time=01:17:22.09 bitrate=8751.7kbits/s speed=63.1x    frame=280553 fps=3787 q=-1.0 size= 4993536kB time=01:17:53.64 bitrate=8752.7kbits/s speed=63.1x    frame=282413 fps=3786 q=-1.0 size= 5027328kB time=01:18:24.60 bitrate=8753.9kbits/s speed=63.1x    frame=284339 fps=3787 q=-1.0 size= 5061376kB time=01:18:56.72 bitrate=8753.5kbits/s speed=63.1x    frame=286776 fps=3794 q=-1.0 size= 5093376kB time=01:19:37.31 bitrate=8734.0kbits/s speed=63.2x    frame=289459 fps=3804 q=-1.0 size= 5127424kB time=01:20:22.00 bitrate=8710.9kbits/s speed=63.4x    frame=291720 fps=3809 q=-1.0 size= 5159680kB time=01:20:59.63 bitrate=8697.8kbits/s speed=63.5x    frame=293297 fps=3805 q=-1.0 size= 5192448kB time=01:21:25.89 bitrate=8706.0kbits/s speed=63.4x    frame=295146 fps=3804 q=-1.0 size= 5225472kB time=01:21:56.71 bitrate=8706.4kbits/s speed=63.4x    frame=299616 fps=3837 q=-1.0 size= 5257728kB time=01:23:11.17 bitrate=8629.5kbits/s speed=63.9x    frame=303940 fps=3867 q=-1.0 size= 5289472kB time=01:24:23.18 bitrate=8558.1kbits/s speed=64.4x    frame=306482 fps=3875 q=-1.0 size= 5322240kB time=01:25:05.53 bitrate=8539.7kbits/s speed=64.6x    frame=308291 fps=3873 q=-1.0 size= 5356288kB time=01:25:35.66 bitrate=8543.9kbits/s speed=64.5x    frame=310417 fps=3876 q=-1.0 size= 5389824kB time=01:26:11.05 bitrate=8538.6kbits/s speed=64.6x    frame=312074 fps=3872 q=-1.0 size= 5422848kB time=01:26:38.69 bitrate=8545.2kbits/s speed=64.5x    frame=313969 fps=3872 q=-1.0 size= 5458432kB time=01:27:10.21 bitrate=8549.5kbits/s speed=64.5x    frame=315762 fps=3870 q=-1.0 size= 5493248kB time=01:27:40.08 bitrate=8555.1kbits/s speed=64.5x    frame=317963 fps=3873 q=-1.0 size= 5527040kB time=01:28:16.78 bitrate=8548.1kbits/s speed=64.5x    frame=319674 fps=3870 q=-1.0 size= 5561600kB time=01:28:45.25 bitrate=8555.6kbits/s speed=64.5x    frame=321515 fps=3869 q=-1.0 size= 5596928kB time=01:29:15.96 bitrate=8560.6kbits/s speed=64.5x    frame=323165 fps=3866 q=-1.0 size= 5630208kB time=01:29:43.45 bitrate=8567.5kbits/s speed=64.4x    frame=324906 fps=3863 q=-1.0 size= 5665536kB time=01:30:12.46 bitrate=8575.0kbits/s speed=64.4x    frame=326685 fps=3862 q=-1.0 size= 5698048kB time=01:30:42.08 bitrate=8577.3kbits/s speed=64.3x    frame=328854 fps=3864 q=-1.0 size= 5734400kB time=01:31:18.18 bitrate=8575.1kbits/s speed=64.4x    frame=330413 fps=3860 q=-1.0 size= 5766656kB time=01:31:44.13 bitrate=8582.7kbits/s speed=64.3x    frame=332265 fps=3859 q=-1.0 size= 5801216kB time=01:32:14.99 bitrate=8586.0kbits/s speed=64.3x    frame=333961 fps=3856 q=-1.0 size= 5835264kB time=01:32:43.24 bitrate=8592.6kbits/s speed=64.2x    frame=335616 fps=3853 q=-1.0 size= 5867776kB time=01:33:10.83 bitrate=8597.8kbits/s speed=64.2x    frame=337348 fps=3851 q=-1.0 size= 5899776kB time=01:33:39.67 bitrate=8600.3kbits/s speed=64.1x    frame=339242 fps=3850 q=-1.0 size= 5933056kB time=01:34:11.24 bitrate=8600.5kbits/s speed=64.1x    frame=340851 fps=3847 q=-1.0 size= 5965312kB time=01:34:38.03 bitrate=8606.5kbits/s speed=64.1x    frame=342711 fps=3846 q=-1.0 size= 6000896kB time=01:35:08.99 bitrate=8610.9kbits/s speed=64.1x    frame=344385 fps=3843 q=-1.0 size= 6031616kB time=01:35:36.88 bitrate=8612.9kbits/s speed=  64x    frame=346079 fps=3841 q=-1.0 size= 6065664kB time=01:36:05.08 bitrate=8619.1kbits/s speed=  64x    frame=347809 fps=3839 q=-1.0 size= 6100480kB time=01:36:33.94 bitrate=8625.4kbits/s speed=63.9x    frame=349649 fps=3838 q=-1.0 size= 6134272kB time=01:37:04.57 bitrate=8627.6kbits/s speed=63.9x    frame=351469 fps=3837 q=-1.0 size= 6169600kB time=01:37:34.87 bitrate=8632.4kbits/s speed=63.9x    frame=353178 fps=3834 q=-1.0 size= 6205184kB time=01:38:03.32 bitrate=8640.2kbits/s speed=63.9x    frame=355421 fps=3838 q=-1.0 size= 6235904kB time=01:38:40.72 bitrate=8628.1kbits/s speed=63.9x    frame=357029 fps=3834 q=-1.0 size= 6267904kB time=01:39:07.50 bitrate=8633.3kbits/s speed=63.9x    frame=358595 fps=3831 q=-1.0 size= 6299136kB time=01:39:33.59 bitrate=8638.4kbits/s speed=63.8x    frame=360730 fps=3833 q=-1.0 size= 6331648kB time=01:40:09.13 bitrate=8631.7kbits/s speed=63.8x    frame=362872 fps=3835 q=-1.0 size= 6362624kB time=01:40:44.86 bitrate=8622.6kbits/s speed=63.9x    frame=364731 fps=3835 q=-1.0 size= 6394368kB time=01:41:15.83 bitrate=8621.5kbits/s speed=63.9x    frame=366481 fps=3833 q=-1.0 size= 6427136kB time=01:41:44.98 bitrate=8624.3kbits/s speed=63.8x    frame=368193 fps=3831 q=-1.0 size= 6459136kB time=01:42:13.51 bitrate=8626.9kbits/s speed=63.8x    frame=370788 fps=3838 q=-1.0 size= 6490112kB time=01:42:56.74 bitrate=8607.6kbits/s speed=63.9x    frame=372550 fps=3836 q=-1.0 size= 6523648kB time=01:43:26.10 bitrate=8611.2kbits/s speed=63.9x    frame=374177 fps=3833 q=-1.0 size= 6556416kB time=01:43:53.21 bitrate=8616.8kbits/s speed=63.9x    frame=377234 fps=3845 q=-1.0 size= 6589696kB time=01:44:44.14 bitrate=8590.3kbits/s speed=  64x    frame=380219 fps=3855 q=-1.0 size= 6622720kB time=01:45:33.85 bitrate=8565.6kbits/s speed=64.2x    frame=381896 fps=3853 q=-1.0 size= 6656000kB time=01:46:01.77 bitrate=8570.9kbits/s speed=64.2x    frame=383698 fps=3852 q=-1.0 size= 6688768kB time=01:46:31.79 bitrate=8572.6kbits/s speed=64.2x    frame=386884 fps=3864 q=-1.0 size= 6720512kB time=01:47:24.88 bitrate=8542.3kbits/s speed=64.4x    frame=388982 fps=3866 q=-1.0 size= 6752768kB time=01:47:59.80 bitrate=8537.1kbits/s speed=64.4x    frame=391284 fps=3870 q=-1.0 size= 6783744kB time=01:48:38.15 bitrate=8525.8kbits/s speed=64.5x    frame=393051 fps=3868 q=-1.0 size= 6816768kB time=01:49:07.58 bitrate=8528.8kbits/s speed=64.4x    frame=395062 fps=3869 q=-1.0 size= 6852096kB time=01:49:41.07 bitrate=8529.4kbits/s speed=64.4x    frame=397046 fps=3869 q=-1.0 size= 6887680kB time=01:50:14.13 bitrate=8530.8kbits/s speed=64.5x    frame=398883 fps=3868 q=-1.0 size= 6921728kB time=01:50:44.74 bitrate=8533.5kbits/s speed=64.4x    frame=401023 fps=3870 q=-1.0 size= 6955776kB time=01:51:20.40 bitrate=8529.7kbits/s speed=64.5x    frame=403240 fps=3873 q=-1.0 size= 6989824kB time=01:51:57.34 bitrate=8524.3kbits/s speed=64.5x    frame=405924 fps=3880 q=-1.0 size= 7020800kB time=01:52:42.04 bitrate=8505.5kbits/s speed=64.6x    frame=407808 fps=3879 q=-1.0 size= 7051520kB time=01:53:13.43 bitrate=8503.2kbits/s speed=64.6x    frame=410857 fps=3890 q=-1.0 size= 7083008kB time=01:54:04.22 bitrate=8477.8kbits/s speed=64.8x    frame=412724 fps=3889 q=-1.0 size= 7115520kB time=01:54:35.33 bitrate=8478.2kbits/s speed=64.8x    frame=414795 fps=3890 q=-1.0 size= 7150080kB time=01:55:09.83 bitrate=8476.8kbits/s speed=64.8x    frame=417526 fps=3898 q=-1.0 size= 7182848kB time=01:55:55.29 bitrate=8460.0kbits/s speed=64.9x    frame=420695 fps=3909 q=-1.0 size= 7216640kB time=01:56:48.12 bitrate=8435.7kbits/s speed=65.1x    frame=423853 fps=3920 q=-1.0 size= 7250688kB time=01:57:40.72 bitrate=8412.4kbits/s speed=65.3x    frame=427523 fps=3936 q=-1.0 size= 7284480kB time=01:58:41.86 bitrate=8379.1kbits/s speed=65.6x    frame=431147 fps=3951 q=-1.0 size= 7318016kB time=01:59:42.28 bitrate=8346.8kbits/s speed=65.8x    frame=433140 fps=3951 q=-1.0 size= 7353088kB time=02:00:15.47 bitrate=8348.2kbits/s speed=65.8x    frame=434938 fps=3949 q=-1.0 size= 7384832kB time=02:00:45.38 bitrate=8349.7kbits/s speed=65.8x    frame=437469 fps=3954 q=-1.0 size= 7416576kB time=02:01:27.58 bitrate=8337.0kbits/s speed=65.9x    frame=438976 fps=3950 q=-1.0 size= 7448064kB time=02:01:52.66 bitrate=8343.7kbits/s speed=65.8x    frame=440577 fps=3947 q=-1.0 size= 7479296kB time=02:02:19.36 bitrate=8348.2kbits/s speed=65.7x    frame=443273 fps=3953 q=-1.0 size= 7513088kB time=02:03:04.26 bitrate=8334.9kbits/s speed=65.9x    frame=445080 fps=3952 q=-1.0 size= 7546624kB time=02:03:34.36 bitrate=8338.1kbits/s speed=65.8x    frame=446802 fps=3949 q=-1.0 size= 7580416kB time=02:04:03.04 bitrate=8343.2kbits/s speed=65.8x    frame=448406 fps=3946 q=-1.0 size= 7611392kB time=02:04:29.77 bitrate=8347.3kbits/s speed=65.7x    frame=450227 fps=3945 q=-1.0 size= 7647232kB time=02:05:00.12 bitrate=8352.7kbits/s speed=65.7x    frame=452017 fps=3943 q=-1.0 size= 7682048kB time=02:05:29.93 bitrate=8357.5kbits/s speed=65.7x    frame=453915 fps=3943 q=-1.0 size= 7717376kB time=02:06:01.54 bitrate=8360.8kbits/s speed=65.7x    frame=455491 fps=3939 q=-1.0 size= 7749888kB time=02:06:27.80 bitrate=8367.0kbits/s speed=65.6x    frame=457199 fps=3937 q=-1.0 size= 7782400kB time=02:06:56.29 bitrate=8370.7kbits/s speed=65.6x    frame=458927 fps=3935 q=-1.0 size= 7815168kB time=02:07:25.08 bitrate=8374.3kbits/s speed=65.5x    frame=460605 fps=3932 q=-1.0 size= 7847680kB time=02:07:53.04 bitrate=8378.5kbits/s speed=65.5x    frame=462984 fps=3936 q=-1.0 size= 7881216kB time=02:08:32.64 bitrate=8371.1kbits/s speed=65.6x    frame=464799 fps=3934 q=-1.0 size= 7916288kB time=02:09:02.90 bitrate=8375.4kbits/s speed=65.5x    frame=466601 fps=3933 q=-1.0 size= 7950592kB time=02:09:32.93 bitrate=8379.2kbits/s speed=65.5x    frame=468422 fps=3932 q=-1.0 size= 7986176kB time=02:10:03.28 bitrate=8384.0kbits/s speed=65.5x    frame=470907 fps=3936 q=-1.0 size= 8020224kB time=02:10:44.68 bitrate=8375.3kbits/s speed=65.6x    frame=473261 fps=3939 q=-1.0 size= 8055296kB time=02:11:23.88 bitrate=8370.1kbits/s speed=65.6x    frame=475779 fps=3944 q=-1.0 size= 8088064kB time=02:12:05.84 bitrate=8359.7kbits/s speed=65.7x    frame=477494 fps=3942 q=-1.0 size= 8119808kB time=02:12:34.40 bitrate=8362.3kbits/s speed=65.7x    frame=479657 fps=3943 q=-1.0 size= 8153856kB time=02:13:10.43 bitrate=8359.5kbits/s speed=65.7x    frame=481490 fps=3942 q=-1.0 size= 8187904kB time=02:13:40.94 bitrate=8362.5kbits/s speed=65.7x    frame=483158 fps=3940 q=-1.0 size= 8219136kB time=02:14:08.74 bitrate=8365.4kbits/s speed=65.6x    frame=484721 fps=3936 q=-1.0 size= 8250368kB time=02:14:34.78 bitrate=8370.1kbits/s speed=65.6x    frame=486674 fps=3936 q=-1.0 size= 8282368kB time=02:15:07.33 bitrate=8368.9kbits/s speed=65.6x    frame=488456 fps=3935 q=-1.0 size= 8314624kB time=02:15:37.02 bitrate=8370.8kbits/s speed=65.5x    frame=490246 fps=3933 q=-1.0 size= 8347392kB time=02:16:06.86 bitrate=8373.1kbits/s speed=65.5x    frame=492270 fps=3934 q=-1.0 size= 8380928kB time=02:16:40.59 bitrate=8372.1kbits/s speed=65.5x    frame=494345 fps=3934 q=-1.0 size= 8412928kB time=02:17:15.15 bitrate=8368.8kbits/s speed=65.5x    frame=496023 fps=3932 q=-1.0 size= 8445184kB time=02:17:43.09 bitrate=8372.5kbits/s speed=65.5x    frame=497696 fps=3930 q=-1.0 size= 8478720kB time=02:18:10.98 bitrate=8377.5kbits/s speed=65.5x    frame=499457 fps=3928 q=-1.0 size= 8510976kB time=02:18:40.30 bitrate=8379.7kbits/s speed=65.4x    frame=501211 fps=3926 q=-1.0 size= 8542464kB time=02:19:09.54 bitrate=8381.3kbits/s speed=65.4x    frame=503267 fps=3927 q=-1.0 size= 8576256kB time=02:19:43.76 bitrate=8380.1kbits/s speed=65.4x    frame=504907 fps=3925 q=-1.0 size= 8606976kB time=02:20:11.12 bitrate=8382.7kbits/s speed=65.4x    frame=507121 fps=3927 q=-1.0 size= 8637952kB time=02:20:47.99 bitrate=8376.2kbits/s speed=65.4x    frame=509481 fps=3930 q=-1.0 size= 8670976kB time=02:21:27.31 bitrate=8369.3kbits/s speed=65.5x    frame=511730 fps=3932 q=-1.0 size= 8702976kB time=02:22:04.78 bitrate=8363.2kbits/s speed=65.5x    frame=514332 fps=3937 q=-1.0 size= 8735488kB time=02:22:48.11 bitrate=8352.0kbits/s speed=65.6x    frame=515976 fps=3934 q=-1.0 size= 8767744kB time=02:23:15.48 bitrate=8356.2kbits/s speed=65.5x    frame=517581 fps=3931 q=-1.0 size= 8799744kB time=02:23:42.23 bitrate=8360.6kbits/s speed=65.5x    frame=519781 fps=3933 q=-1.0 size= 8832256kB time=02:24:18.91 bitrate=8356.0kbits/s speed=65.5x    frame=521862 fps=3934 q=-1.0 size= 8864768kB time=02:24:53.58 bitrate=8353.3kbits/s speed=65.5x    frame=524385 fps=3938 q=-1.0 size= 8898816kB time=02:25:35.61 bitrate=8345.0kbits/s speed=65.6x    frame=526275 fps=3938 q=-1.0 size= 8931584kB time=02:26:07.08 bitrate=8345.7kbits/s speed=65.6x    frame=528278 fps=3938 q=-1.0 size= 8967168kB time=02:26:40.46 bitrate=8347.2kbits/s speed=65.6x    frame=530344 fps=3939 q=-1.0 size= 9002496kB time=02:27:14.85 bitrate=8347.4kbits/s speed=65.6x    frame=532247 fps=3938 q=-1.0 size= 9034752kB time=02:27:46.56 bitrate=8347.4kbits/s speed=65.6x    frame=534076 fps=3937 q=-1.0 size= 9070336kB time=02:28:17.07 bitrate=8351.5kbits/s speed=65.6x    frame=536157 fps=3938 q=-1.0 size= 9105920kB time=02:28:51.75 bitrate=8351.7kbits/s speed=65.6x    frame=538115 fps=3938 q=-1.0 size= 9137152kB time=02:29:24.36 bitrate=8349.9kbits/s speed=65.6x    frame=540407 fps=3940 q=-1.0 size= 9168640kB time=02:30:02.55 bitrate=8343.1kbits/s speed=65.6x    frame=541901 fps=3937 q=-1.0 size= 9198592kB time=02:30:27.42 bitrate=8347.3kbits/s speed=65.6x    frame=544353 fps=3940 q=-1.0 size= 9230848kB time=02:31:08.30 bitrate=8338.8kbits/s speed=65.6x    frame=546715 fps=3943 q=-1.0 size= 9263104kB time=02:31:47.63 bitrate=8331.8kbits/s speed=65.7x    frame=548963 fps=3945 q=-1.0 size= 9295360kB time=02:32:25.06 bitrate=8326.6kbits/s speed=65.7x    frame=551179 fps=3947 q=-1.0 size= 9329920kB time=02:33:02.01 bitrate=8324.0kbits/s speed=65.7x    frame=553251 fps=3947 q=-1.0 size= 9365248kB time=02:33:36.48 bitrate=8324.2kbits/s speed=65.8x    frame=555263 fps=3948 q=-1.0 size= 9399040kB time=02:34:10.01 bitrate=8324.0kbits/s speed=65.8x    frame=558295 fps=3955 q=-1.0 size= 9431808kB time=02:35:00.53 bitrate=8307.6kbits/s speed=65.9x    frame=560653 fps=3958 q=-1.0 size= 9462016kB time=02:35:39.80 bitrate=8299.2kbits/s speed=65.9x    frame=563282 fps=3962 q=-1.0 size= 9493760kB time=02:36:23.63 bitrate=8288.1kbits/s speed=  66x    frame=566122 fps=3968 q=-1.0 size= 9526016kB time=02:37:10.95 bitrate=8274.6kbits/s speed=66.1x    frame=567868 fps=3967 q=-1.0 size= 9557248kB time=02:37:40.04 bitrate=8276.2kbits/s speed=66.1x    frame=571033 fps=3975 q=-1.0 size= 9590272kB time=02:38:32.76 bitrate=8258.7kbits/s speed=66.2x    frame=574158 fps=3983 q=-1.0 size= 9624832kB time=02:39:24.81 bitrate=8243.4kbits/s speed=66.3x    frame=577170 fps=3990 q=-1.0 size= 9656832kB time=02:40:15.02 bitrate=8227.6kbits/s speed=66.5x    frame=579531 fps=3992 q=-1.0 size= 9691904kB time=02:40:54.38 bitrate=8223.8kbits/s speed=66.5x    frame=582249 fps=3997 q=-1.0 size= 9724928kB time=02:41:39.62 bitrate=8213.4kbits/s speed=66.6x    frame=585263 fps=4004 q=-1.0 size= 9757696kB time=02:42:29.82 bitrate=8198.6kbits/s speed=66.7x    frame=587115 fps=4003 q=-1.0 size= 9789440kB time=02:43:00.69 bitrate=8199.3kbits/s speed=66.7x    frame=590308 fps=4011 q=-1.0 size= 9819648kB time=02:43:53.88 bitrate=8180.1kbits/s speed=66.8x    frame=592233 fps=4011 q=-1.0 size= 9853184kB time=02:44:25.95 bitrate=8181.4kbits/s speed=66.8x    frame=594903 fps=4015 q=-1.0 size= 9884416kB time=02:45:10.40 bitrate=8170.5kbits/s speed=66.9x    frame=597791 fps=4021 q=-1.0 size= 9915136kB time=02:45:58.50 bitrate=8156.3kbits/s speed=  67x    frame=599753 fps=4021 q=-1.0 size= 9950464kB time=02:46:31.19 bitrate=8158.6kbits/s speed=  67x    frame=601399 fps=4018 q=-1.0 size= 9983232kB time=02:46:58.63 bitrate=8163.1kbits/s speed=66.9x    frame=603839 fps=4021 q=-1.0 size=10017792kB time=02:47:39.28 bitrate=8158.2kbits/s speed=  67x    frame=606427 fps=4025 q=-1.0 size=10051072kB time=02:48:22.37 bitrate=8150.4kbits/s speed=  67x    frame=608232 fps=4023 q=-1.0 size=10084096kB time=02:48:52.44 bitrate=8152.9kbits/s speed=  67x    frame=610332 fps=4024 q=-1.0 size=10117376kB time=02:49:27.45 bitrate=8151.7kbits/s speed=  67x    frame=612315 fps=4024 q=-1.0 size=10153216kB time=02:50:00.49 bitrate=8154.0kbits/s speed=  67x    frame=614344 fps=4024 q=-1.0 size=10188032kB time=02:50:34.29 bitrate=8155.0kbits/s speed=  67x    frame=616230 fps=4023 q=-1.0 size=10223104kB time=02:51:05.73 bitrate=8158.0kbits/s speed=  67x    frame=617988 fps=4021 q=-1.0 size=10256128kB time=02:51:35.00 bitrate=8161.1kbits/s speed=  67x    frame=619658 fps=4019 q=-1.0 size=10289920kB time=02:52:02.85 bitrate=8165.9kbits/s speed=  67x    frame=622039 fps=4022 q=-1.0 size=10325760kB time=02:52:42.51 bitrate=8162.9kbits/s speed=  67x    frame=624006 fps=4021 q=-1.0 size=10358784kB time=02:53:15.28 bitrate=8163.2kbits/s speed=  67x    frame=625613 fps=4019 q=-1.0 size=10390016kB time=02:53:42.04 bitrate=8166.8kbits/s speed=66.9x    frame=628365 fps=4023 q=-1.0 size=10424320kB time=02:54:27.85 bitrate=8157.9kbits/s speed=  67x    frame=630047 fps=4021 q=-1.0 size=10457600kB time=02:54:55.85 bitrate=8162.1kbits/s speed=  67x    frame=632049 fps=4021 q=-1.0 size=10493440kB time=02:55:29.23 bitrate=8164.2kbits/s speed=  67x    frame=634266 fps=4023 q=-1.0 size=10530048kB time=02:56:06.16 bitrate=8164.0kbits/s speed=  67x    frame=635875 fps=4020 q=-1.0 size=10560768kB time=02:56:32.97 bitrate=8167.1kbits/s speed=  67x    frame=637859 fps=4020 q=-1.0 size=10595584kB time=02:57:06.00 bitrate=8168.5kbits/s speed=  67x    frame=640188 fps=4022 q=-1.0 size=10628608kB time=02:57:44.83 bitrate=8164.2kbits/s speed=  67x    frame=642047 fps=4021 q=-1.0 size=10664704kB time=02:58:15.78 bitrate=8168.2kbits/s speed=  67x    frame=643743 fps=4019 q=-1.0 size=10700288kB time=02:58:44.06 bitrate=8173.8kbits/s speed=  67x    frame=646273 fps=4022 q=-1.0 size=10734336kB time=02:59:26.22 bitrate=8167.7kbits/s speed=  67x    frame=648264 fps=4022 q=-1.0 size=10769152kB time=02:59:59.35 bitrate=8169.1kbits/s speed=  67x    frame=650273 fps=4022 q=-1.0 size=10804992kB time=03:00:32.86 bitrate=8170.9kbits/s speed=  67x    frame=652203 fps=4021 q=-1.0 size=10838272kB time=03:01:05.02 bitrate=8171.8kbits/s speed=  67x    frame=655158 fps=4027 q=-1.0 size=10872832kB time=03:01:54.23 bitrate=8160.9kbits/s speed=67.1x    frame=657230 fps=4027 q=-1.0 size=10906368kB time=03:02:28.77 bitrate=8160.3kbits/s speed=67.1x    frame=659413 fps=4029 q=-1.0 size=10941184kB time=03:03:05.13 bitrate=8159.2kbits/s speed=67.1x    frame=661389 fps=4028 q=-1.0 size=10977024kB time=03:03:38.05 bitrate=8161.5kbits/s speed=67.1x    frame=664099 fps=4033 q=-1.0 size=11009280kB time=03:04:23.19 bitrate=8152.1kbits/s speed=67.2x    frame=665855 fps=4031 q=-1.0 size=11043328kB time=03:04:52.44 bitrate=8155.7kbits/s speed=67.2x    frame=667885 fps=4031 q=-1.0 size=11078144kB time=03:05:26.25 bitrate=8156.6kbits/s speed=67.2x    frame=669526 fps=4029 q=-1.0 size=11111168kB time=03:05:53.61 bitrate=8160.8kbits/s speed=67.1x    frame=671627 fps=4029 q=-1.0 size=11147776kB time=03:06:28.62 bitrate=8162.1kbits/s speed=67.1x    frame=674010 fps=4031 q=-1.0 size=11182848kB time=03:07:08.30 bitrate=8158.8kbits/s speed=67.2x    frame=677664 fps=4041 q=-1.0 size=11214080kB time=03:08:09.15 bitrate=8137.5kbits/s speed=67.3x    frame=680820 fps=4048 q=-1.0 size=11246592kB time=03:09:01.74 bitrate=8123.3kbits/s speed=67.4x    frame=683978 fps=4055 q=-1.0 size=11275776kB time=03:09:54.35 bitrate=8106.7kbits/s speed=67.5x    frame=687158 fps=4061 q=-1.0 size=11308544kB time=03:10:47.32 bitrate=8092.7kbits/s speed=67.7x    frame=689550 fps=4064 q=-1.0 size=11343616kB time=03:11:27.18 bitrate=8089.6kbits/s speed=67.7x    frame=691723 fps=4064 q=-1.0 size=11377152kB time=03:12:03.41 bitrate=8088.0kbits/s speed=67.7x    frame=693915 fps=4065 q=-1.0 size=11411200kB time=03:12:39.89 bitrate=8086.6kbits/s speed=67.7x    frame=695706 fps=4064 q=-1.0 size=11446528kB time=03:13:09.73 bitrate=8090.8kbits/s speed=67.7x    frame=697778 fps=4064 q=-1.0 size=11483136kB time=03:13:44.26 bitrate=8092.5kbits/s speed=67.7x    frame=699771 fps=4064 q=-1.0 size=11520512kB time=03:14:17.46 bitrate=8095.8kbits/s speed=67.7x    frame=701482 fps=4062 q=-1.0 size=11553280kB time=03:14:45.98 bitrate=8099.0kbits/s speed=67.7x    frame=703830 fps=4064 q=-1.0 size=11586304kB time=03:15:25.07 bitrate=8095.0kbits/s speed=67.7x    frame=705535 fps=4062 q=-1.0 size=11619328kB time=03:15:53.48 bitrate=8098.5kbits/s speed=67.7x    frame=707153 fps=4059 q=-1.0 size=11652608kB time=03:16:20.43 bitrate=8103.1kbits/s speed=67.6x    frame=708934 fps=4058 q=-1.0 size=11688192kB time=03:16:50.13 bitrate=8107.4kbits/s speed=67.6x    frame=710836 fps=4057 q=-1.0 size=11721984kB time=03:17:21.82 bitrate=8109.1kbits/s speed=67.6x    frame=712984 fps=4058 q=-1.0 size=11757056kB time=03:17:58.12 bitrate=8108.5kbits/s speed=67.6x    frame=714767 fps=4057 q=-1.0 size=11792384kB time=03:18:28.50 bitrate=8112.1kbits/s speed=67.6x    frame=716590 fps=4055 q=-1.0 size=11825920kB time=03:18:58.86 bitrate=8114.5kbits/s speed=67.6x    frame=718394 fps=4054 q=-1.0 size=11861248kB time=03:19:29.46 bitrate=8117.9kbits/s speed=67.5x    frame=720279 fps=4053 q=-1.0 size=11895808kB time=03:20:00.89 bitrate=8120.3kbits/s speed=67.5x    frame=721974 fps=4051 q=-1.0 size=11928576kB time=03:20:29.11 bitrate=8123.5kbits/s speed=67.5x    frame=723726 fps=4050 q=-1.0 size=11962880kB time=03:20:58.29 bitrate=8127.2kbits/s speed=67.5x    frame=725667 fps=4049 q=-1.0 size=11994368kB time=03:21:30.61 bitrate=8126.8kbits/s speed=67.5x    frame=727603 fps=4049 q=-1.0 size=12029952kB time=03:22:02.88 bitrate=8129.2kbits/s speed=67.5x    frame=729447 fps=4048 q=-1.0 size=12065792kB time=03:22:33.57 bitrate=8132.8kbits/s speed=67.4x    frame=731036 fps=4045 q=-1.0 size=12098560kB time=03:23:00.06 bitrate=8137.2kbits/s speed=67.4x    frame=732841 fps=4044 q=-1.0 size=12133376kB time=03:23:30.13 bitrate=8140.5kbits/s speed=67.4x    frame=735994 fps=4050 q=-1.0 size=12165632kB time=03:24:22.63 bitrate=8127.2kbits/s speed=67.5x    frame=737854 fps=4050 q=-1.0 size=12201984kB time=03:24:53.61 bitrate=8130.9kbits/s speed=67.5x    frame=739661 fps=4048 q=-1.0 size=12237056kB time=03:25:23.73 bitrate=8134.4kbits/s speed=67.5x    frame=741395 fps=4047 q=-1.0 size=12270848kB time=03:25:52.64 bitrate=8137.8kbits/s speed=67.4x    frame=743241 fps=4046 q=-1.0 size=12306688kB time=03:26:23.38 bitrate=8141.3kbits/s speed=67.4x    frame=745073 fps=4045 q=-1.0 size=12342528kB time=03:26:53.87 bitrate=8144.9kbits/s speed=67.4x    frame=746719 fps=4043 q=-1.0 size=12376576kB time=03:27:21.27 bitrate=8149.4kbits/s speed=67.4x    frame=749381 fps=4046 q=-1.0 size=12412160kB time=03:28:05.65 bitrate=8143.8kbits/s speed=67.4x    frame=751034 fps=4044 q=-1.0 size=12443904kB time=03:28:33.18 bitrate=8146.6kbits/s speed=67.4x    frame=752634 fps=4042 q=-1.0 size=12477184kB time=03:28:59.82 bitrate=8151.1kbits/s speed=67.3x    frame=754399 fps=4040 q=-1.0 size=12513024kB time=03:29:29.20 bitrate=8155.4kbits/s speed=67.3x    frame=755980 fps=4038 q=-1.0 size=12544256kB time=03:29:55.54 bitrate=8158.6kbits/s speed=67.3x    frame=757695 fps=4036 q=-1.0 size=12578816kB time=03:30:24.13 bitrate=8162.6kbits/s speed=67.3x    frame=759336 fps=4034 q=-1.0 size=12612864kB time=03:30:51.46 bitrate=8167.0kbits/s speed=67.2x    frame=761027 fps=4033 q=-1.0 size=12646912kB time=03:31:19.62 bitrate=8170.9kbits/s speed=67.2x    frame=762631 fps=4031 q=-1.0 size=12680192kB time=03:31:46.32 bitrate=8175.1kbits/s speed=67.2x    frame=764205 fps=4028 q=-1.0 size=12713472kB time=03:32:12.54 bitrate=8179.7kbits/s speed=67.1x    frame=767297 fps=4034 q=-1.0 size=12746752kB time=03:33:04.07 bitrate=8168.1kbits/s speed=67.2x    frame=768885 fps=4032 q=-1.0 size=12777984kB time=03:33:30.51 bitrate=8171.2kbits/s speed=67.2x    frame=770579 fps=4030 q=-1.0 size=12811264kB time=03:33:58.76 bitrate=8174.5kbits/s speed=67.1x    frame=772208 fps=4028 q=-1.0 size=12841216kB time=03:34:25.88 bitrate=8176.3kbits/s speed=67.1x    frame=773878 fps=4026 q=-1.0 size=12875776kB time=03:34:53.72 bitrate=8180.6kbits/s speed=67.1x    frame=775664 fps=4025 q=-1.0 size=12909312kB time=03:35:23.45 bitrate=8183.0kbits/s speed=67.1x    frame=777863 fps=4026 q=-1.0 size=12939264kB time=03:36:00.09 bitrate=8178.8kbits/s speed=67.1x    frame=779937 fps=4026 q=-1.0 size=12972032kB time=03:36:34.67 bitrate=8177.7kbits/s speed=67.1x    frame=782266 fps=4028 q=-1.0 size=13004800kB time=03:37:13.44 bitrate=8174.0kbits/s speed=67.1x    frame=784281 fps=4028 q=-1.0 size=13039360kB time=03:37:46.98 bitrate=8174.7kbits/s speed=67.1x    frame=786632 fps=4029 q=-1.0 size=13074176kB time=03:38:26.16 bitrate=8172.0kbits/s speed=67.1x    frame=788621 fps=4029 q=-1.0 size=13105408kB time=03:38:59.30 bitrate=8170.9kbits/s speed=67.1x    frame=790597 fps=4029 q=-1.0 size=13139968kB time=03:39:32.23 bitrate=8171.9kbits/s speed=67.1x    frame=793324 fps=4033 q=-1.0 size=13174784kB time=03:40:17.64 bitrate=8165.4kbits/s speed=67.2x    frame=795377 fps=4033 q=-1.0 size=13207040kB time=03:40:51.87 bitrate=8164.3kbits/s speed=67.2x    frame=797923 fps=4036 q=-1.0 size=13241344kB time=03:41:34.26 bitrate=8159.4kbits/s speed=67.2x    frame=799642 fps=4034 q=-1.0 size=13274368kB time=03:42:02.87 bitrate=8162.2kbits/s speed=67.2x    frame=801278 fps=4032 q=-1.0 size=13308160kB time=03:42:30.12 bitrate=8166.2kbits/s speed=67.2x    frame=803680 fps=4034 q=-1.0 size=13341184kB time=03:43:10.12 bitrate=8162.1kbits/s speed=67.2x    frame=805646 fps=4034 q=-1.0 size=13374208kB time=03:43:42.89 bitrate=8162.3kbits/s speed=67.2x    frame=807419 fps=4033 q=-1.0 size=13408768kB time=03:44:12.44 bitrate=8165.4kbits/s speed=67.2x    frame=809438 fps=4033 q=-1.0 size=13445888kB time=03:44:46.04 bitrate=8167.6kbits/s speed=67.2x    frame=811285 fps=4032 q=-1.0 size=13480192kB time=03:45:16.84 bitrate=8169.8kbits/s speed=67.2x    frame=814015 fps=4035 q=-1.0 size=13516288kB time=03:46:02.33 bitrate=8164.2kbits/s speed=67.2x    frame=817009 fps=4040 q=-1.0 size=13550080kB time=03:46:52.21 bitrate=8154.6kbits/s speed=67.3x    frame=818943 fps=4040 q=-1.0 size=13585920kB time=03:47:24.42 bitrate=8156.9kbits/s speed=67.3x    frame=821486 fps=4042 q=-1.0 size=13622528kB time=03:48:06.78 bitrate=8153.5kbits/s speed=67.3x    frame=824158 fps=4045 q=-1.0 size=13655808kB time=03:48:51.30 bitrate=8147.0kbits/s speed=67.4x    frame=826746 fps=4048 q=-1.0 size=13690624kB time=03:49:34.42 bitrate=8142.2kbits/s speed=67.4x    frame=829060 fps=4050 q=-1.0 size=13726208kB time=03:50:12.95 bitrate=8140.6kbits/s speed=67.5x    frame=831550 fps=4052 q=-1.0 size=13760512kB time=03:50:54.38 bitrate=8136.5kbits/s speed=67.5x    frame=834201 fps=4055 q=-1.0 size=13795328kB time=03:51:38.54 bitrate=8131.2kbits/s speed=67.6x    frame=837539 fps=4061 q=-1.0 size=13828096kB time=03:52:34.16 bitrate=8118.0kbits/s speed=67.7x    frame=839706 fps=4062 q=-1.0 size=13864704kB time=03:53:10.28 bitrate=8118.5kbits/s speed=67.7x    frame=842922 fps=4068 q=-1.0 size=13899776kB time=03:54:03.87 bitrate=8107.9kbits/s speed=67.8x    frame=845546 fps=4070 q=-1.0 size=13934592kB time=03:54:47.58 bitrate=8103.0kbits/s speed=67.8x    frame=847687 fps=4071 q=-1.0 size=13969664kB time=03:55:23.21 bitrate=8102.9kbits/s speed=67.8x    frame=850826 fps=4076 q=-1.0 size=14005248kB time=03:56:15.54 bitrate=8093.6kbits/s speed=67.9x    frame=853125 fps=4077 q=-1.0 size=14038784kB time=03:56:53.84 bitrate=8091.1kbits/s speed=67.9x    frame=855488 fps=4079 q=-1.0 size=14074880kB time=03:57:33.21 bitrate=8089.5kbits/s speed=  68x    frame=858405 fps=4083 q=-1.0 size=14108160kB time=03:58:21.81 bitrate=8081.1kbits/s speed=  68x    frame=860767 fps=4085 q=-1.0 size=14141952kB time=03:59:01.14 bitrate=8078.2kbits/s speed=68.1x    frame=863674 fps=4089 q=-1.0 size=14175744kB time=03:59:49.55 bitrate=8070.3kbits/s speed=68.1x    frame=866020 fps=4090 q=-1.0 size=14210048kB time=04:00:28.63 bitrate=8067.9kbits/s speed=68.1x    frame=868301 fps=4091 q=-1.0 size=14245376kB time=04:01:06.64 bitrate=8066.7kbits/s speed=68.2x    frame=871388 fps=4096 q=-1.0 size=14279680kB time=04:01:58.06 bitrate=8057.5kbits/s speed=68.2x    frame=873523 fps=4096 q=-1.0 size=14311168kB time=04:02:33.61 bitrate=8055.5kbits/s speed=68.3x    frame=876644 fps=4101 q=-1.0 size=14345472kB time=04:03:25.61 bitrate=8046.1kbits/s speed=68.3x    frame=879075 fps=4103 q=-1.0 size=14378752kB time=04:04:06.11 bitrate=8042.5kbits/s speed=68.4x    frame=881692 fps=4106 q=-1.0 size=14411776kB time=04:04:49.72 bitrate=8037.0kbits/s speed=68.4x    frame=884137 fps=4108 q=-1.0 size=14444800kB time=04:05:30.45 bitrate=8033.1kbits/s speed=68.4x    frame=886314 fps=4108 q=-1.0 size=14478848kB time=04:06:06.73 bitrate=8032.3kbits/s speed=68.4x    frame=889274 fps=4112 q=-1.0 size=14512128kB time=04:06:56.03 bitrate=8024.0kbits/s speed=68.5x    frame=891706 fps=4114 q=-1.0 size=14546688kB time=04:07:36.56 bitrate=8021.1kbits/s speed=68.5x    frame=894220 fps=4116 q=-1.0 size=14579968kB time=04:08:18.42 bitrate=8016.9kbits/s speed=68.6x    frame=897310 fps=4121 q=-1.0 size=14613504kB time=04:09:09.88 bitrate=8007.7kbits/s speed=68.7x    frame=899639 fps=4122 q=-1.0 size=14647040kB time=04:09:48.71 bitrate=8005.3kbits/s speed=68.7x    frame=901861 fps=4123 q=-1.0 size=14679040kB time=04:10:25.72 bitrate=8003.0kbits/s speed=68.7x    frame=904252 fps=4124 q=-1.0 size=14713088kB time=04:11:05.52 bitrate=8000.4kbits/s speed=68.7x    frame=907626 fps=4130 q=-1.0 size=14746112kB time=04:12:01.76 bitrate=7988.5kbits/s speed=68.8x    frame=910532 fps=4137 q=-1.0 Lsize=14767146kB time=04:12:50.15 bitrate=7974.4kbits/s speed=68.9x    
video:14371619kB audio:365040kB subtitle:0kB other streams:0kB global headers:0kB muxing overhead: 0.206885%
